<svg viewBox="0 0 102.89748599999999 89.73240579710145" xmlns:xlink="http://www.w3.org/1999/xlink" xmlns="http://www.w3.org/2000/svg" data-name="Grupo 2151" id="Grupo_2151" style="max-height: 500px" width="102.89748599999999" height="89.73240579710145">
  <defs>
    <clipPath id="clip-path">
      <rect fill="none" height="89.301" width="215.718" data-name="Rectángulo 2704" id="Rectángulo_2704"/>
    </clipPath>
  </defs>
  <g clip-path="url(#clip-path)" data-name="Grupo 2150" id="Grupo_2150">
    <path fill="#5ab043" transform="translate(-7.691 -16.272)" d="M28.211,41.636c3.227-6.446,9.458-14.41,13.21-13.895,2.443.336-2.551,12.971-6.221,22.016s-6.172,15.189-7.743,22.7S27.108,86.79,24.9,93.4c-2.1,6.292-5.67,13.147-10.793,12.053-2.3-.491-.029-6.421.727-9.365s7.153-20.027,8.557-29.217c1.732-11.339,1.265-18.132,4.823-25.239" data-name="Trazado 10265" id="Trazado_10265"/>
    <path fill="#cf462b" transform="translate(0 -6.128)" d="M79.485,10.44c11.9-.294,19.469,24.468,22.529,41.634a1.231,1.231,0,0,1-.8,1.361,1.608,1.608,0,0,1-1.736-.325c-9.472-9.884-18.194-20.924-27.115-20.7-11.27.278-15.474,11.921-21.841,22.933C43.537,67.42,36.486,79.475,23.8,79.789,12.93,80.057.224,70.908,0,62s8.828-12.874,11.5-4.115,4.161,18.132,9.345,18c7.2-.178,15.367-17.444,26.6-33.979C58.227,26.028,69.977,10.675,79.485,10.44" data-name="Trazado 10266" id="Trazado_10266"/>
    <path fill="#1c589e" transform="translate(-46.404 0)" d="M113.8.588c1.922,2.9-12.24,18.277-24.02,30.921a.32.32,0,0,0,.282.534c8.474-1.305,12.25-.917,13.3,1.217,1.944,3.955-9.566,13-8.179,15.956,1.777,3.788,15.054,2.9,17.566,7.509,1.207,2.212-2.078,11.934-10.056,14.616S87.551,64.766,84.251,58.4C83.031,56.05,71.744,30.765,86.795,13.14,97.582.509,112.623-1.183,113.8.588" data-name="Trazado 10267" id="Trazado_10267"/>
    <path fill="#5ab043" transform="translate(-44.424 0)" d="M82.823.459c-.844-1.372-5.613.44-6.75,3.925s.33,3.7,1.908,3.485,2.788,1.331,3.411.06S83.7,1.89,82.823.459" data-name="Trazado 10268" id="Trazado_10268"/>
    <path fill="#212121" transform="translate(-149.382 -19.896)" d="M261.3,58.489c2.68-.929,4.917-10.127,4.9-10.2.657-1.328,3-8.408,3-11.923,0-.891-.1-2.479-1.005-2.479a4.658,4.658,0,0,0-2.334,1.328,3.035,3.035,0,0,0-1.6.812c-1.558.886-2.08,1.5-.386,1.7,1.145.137,1.612.316.27,6.228-.683,3-.206,1.789-.915,3.755-1.684,4.657-2.582,10.775-4.533,6.456-.294-.648-.619-.7.188-1.092.771-.376.8-.581-.88-3.652-.359-.656-.967-1.328-2.7-1.328-1.066,0-1.187,2.9-.027,5.187A39.022,39.022,0,0,0,257.2,57.9c.672,1.361,2.646,1.058,4.093.59" data-name="Trazado 10269" id="Trazado_10269"/>
    <path fill="#212121" transform="translate(-169.343 -33.506)" d="M288.454,67.3a9.462,9.462,0,0,1,.862,1.623c.712-.639-.423.015,1.6-1.284.274-.177.535-.375.78-.192.54.406-1.482,2.253.62,4.044,2.044,1.742,6.188.286,7.916-1.609.969,1.74,3.064.192,4.685-.959L304.9,68.9c.075.052.14-.131.408-.5,2.378-1.3,3.987-3.608,5.87-4.5,2.3.237,1.361,3.651.467,5.8-.38.886-2.277,2.893.9,2.893a32.436,32.436,0,0,0,6.744-3.673c2-1.713-.019-.363,3.019,2.773,2.485,2.59,1.657,1.077-1.831,5.3a7.555,7.555,0,0,0-1.49,2.819c0,2.615-.118,3.645,3,3.645,3.224,0,7.959-3.258,8.312-6.109.064-.448.085-.612.107-.723-.642-3.654-2.28-3.592-2.28-4.382a40.912,40.912,0,0,1,3.461-3.7c1.592-.982.6,3.533,5.511,2.649a2.774,2.774,0,0,0,.79-.258c1.408,0,2.963-1.1,4.075-1.992-1.173-2.4-.328-1.456-2.9-.8-1.7.434-3.1.009-3.438-.6-.714-1.272.6-1.33,3.052-3.91a6.987,6.987,0,0,0,1.831-3.283,3.646,3.646,0,0,0-.682-1.859c-.569-.546-2-.415-2.71-.207-2.018,1.243.073-.351-3.016,2.494a9.145,9.145,0,0,0-2.137,4.988,6.423,6.423,0,0,0-1.705,1.549,25.52,25.52,0,0,1-3.694,3.32,10.6,10.6,0,0,1-2.3-2.391,4.038,4.038,0,0,1-.431-2.051c.366-1.037.128-.7,1.05-1.476.843-.71,5.663-4.779,5.663-5.873a2.268,2.268,0,0,0-.314-1.313c-.515-.726-1.835-.436-2.612-.052-.884.438-.4.294-3.931,3.505-2.5,2.276-1.927,3.577-4.38,5.342-1.081,1.15-6.417,5.784-3.964.908,1.356-2.7.525-4.887-1.4-5.984-.957-.786-1.372-1.092-2.226-1.092a5.561,5.561,0,0,0-3.177,1.653l.216.842a12.765,12.765,0,0,1-4.039,3.881c-.652.834-1.542,1.7-1.917.708,2.309-1.738,1.656-7.166-2.531-6.021-1.741.477-1.418.536-1.616.28.423-.723.628-.913.18-1.084-1.749-.666-2.848,1.164-7.1,4.4a9.442,9.442,0,0,1-2.594,1.712,4.98,4.98,0,0,1-.682.782m48.691-5.755c.451,0,.637.8-1.112,2.125-.307.377-.356.576-.682.576-.954,0,1.066-2.7,1.795-2.7M325.481,74.726c.768,0,1.544,1.793,1.544,2.523,0,3.038-6.068,5.606-6.068,3.66a7.075,7.075,0,0,1,.808-1.845c.566-.649,3.28-4.339,3.716-4.339M295.024,68.27a8.078,8.078,0,0,1,.817-1.882c.359-.481.433-.237,1.068-.516.86-.377,1.349-1.738,1.9-1.815,1.655.175,1.717.061,2.244,1.476-.59,1.5-.6,1.772-.88,1.948a9.983,9.983,0,0,1-2.208,1.985c-.976.532-3.566,1.064-2.944-1.2" data-name="Trazado 10270" id="Trazado_10270"/>
    <path fill="#212121" transform="translate(-151.979 -65.487)" d="M276,126.46a4.463,4.463,0,0,0-1.761,1.593c-.964,1.215-.676.787-3.641,3.269-10.465,8.764-9.245-14.5.267-17.14a4.021,4.021,0,0,1,3.991.774,8.514,8.514,0,0,1,1.964,4.117c0,2.241,3.927-.434,3.927-1.593a6.2,6.2,0,0,0-1.014-2.229,3.725,3.725,0,0,0-1.235-1.83c-1.381-1.391-1.211-1.248-3.559-1.874-.937.265.659-.2-3.06.148-11.494,3.245-12.573,13.588-12.966,17.314a6,6,0,0,0,.462,3.017c1.873,4.308,3.664,3.192,6.015,3.59,3.651-.45,5.727-2.706,8.038-3.984.453,0,.32.337.147.723.422,1.646.361.608-.249,3.025a10.081,10.081,0,0,0-.313,2.28c-.113.837-.825,2.357-.341,2.981.268.346,1.156.379,1.382-.6,1.981-.529,1.625-.782,2.139-2.53a8.673,8.673,0,0,0,.876-2.5c.415-2.214.711-1.707,1.06-3.011a31.1,31.1,0,0,1,.747-3.9c.745-1.793-1.4-2.237-2.876-1.638" data-name="Trazado 10271" id="Trazado_10271"/>
    <path fill="#212121" transform="translate(-214.022 -76.064)" d="M366.789,130.7a3.272,3.272,0,0,0-2.231,2.2c0,.546.122,1.2.609,1.431,1.5,0,1.211.206,1.88-.015,1.95-.693,2.2-1.506,2.471-2.184.6-1.5,1.146-2.568-.443-2.568-1.336,0-1.534.384-2.286,1.136" data-name="Trazado 10272" id="Trazado_10272"/>
    <path fill="#212121" transform="translate(-269.69 -70.069)" d="M460.741,125.354c.237-.082.221-.368.572-.546a5.9,5.9,0,0,0,.811-.251c.492-.236.431-.339.922-.576.443-.253.5-.087,1-.325.236-.081.445-.41.7-.487,4.388-1.35.908-5.349-.442-3.187-.249.432-.062.546-.442,1a6.675,6.675,0,0,1-1.844,1.343,9.654,9.654,0,0,0-1.733,1.432c-.327.262-1.055.6-.867.9.09.363.034,1.315,1.328.693" data-name="Trazado 10273" id="Trazado_10273"/>
    <path fill="#212121" transform="translate(-181.455 -64.48)" d="M396.527,130.227a.228.228,0,0,0-.3-.087c-3.826,1.947-1.4-5.775-6.814-3.474a11.973,11.973,0,0,0-3.429,2.7c-1.575,1.08-1.436,1.38-1.862,1.55-.174-.191-.168-.257-.111-.531,0-.011,2.1-4.212,2.1-5.681,0-2.3-2.889-1.79-4.388-.413-4.016,3.709-5.676,4.867-6.208,5.409-.177-.107-.446.341-2.136.762-1.731.432-3.175.018-3.531-.6-.733-1.271.611-1.327,3.134-3.911,1.608-1.648,1.412-2.283,1.88-3.283a3.594,3.594,0,0,0-.7-1.859c-.587-.548-2.057-.414-2.784-.206-2.082,1.249.075-.35-3.1,2.494a8.915,8.915,0,0,0-2.193,4.988,6.528,6.528,0,0,0-1.752,1.55c.021.033.04.063.06.094-3.4,2.395-7.056,1.824-7.056-2.042,1.468-1.763,7.782-9.749,7.614-12.041.057-.091.017.168.719-3.04.493-2.259-.348-2.774-2.12-2.774-3.083,0-9.122,13.01-8.554,14.505a8.783,8.783,0,0,0-.553,2.509c.2.8.189.609-1.512,1.8-.547.515-.554.668-.922.989l.054.1c-3.414,2.4-7.051,1.8-7.051-2.046,1.468-1.763,7.782-9.749,7.614-12.041.006-.01,2.823-5.814-1.4-5.814-3.083,0-9.123,13.01-8.554,14.505a8.783,8.783,0,0,0-.553,2.509c.2.8.188.609-1.512,1.8-.547.515-.553.668-.922.989.089.163.247-.017-1.171.929-.709.474-2.174.8-2.562.177-.184-.171-.413-1.235-.719-1.889a22.11,22.11,0,0,0-.5-2.228,1.9,1.9,0,0,0-3.1-.708c-.945,1.04-4.761,3.449-4.331,3.753-2.066.637-1.785-.957-1.993-1.717-.273-.989.142-1.834-.738-2.139a2.273,2.273,0,0,0-2.074.3c-.743.606-.629,1.02-1.336,1.66s-1.223,1.509-3.272,3.305c-1.366.592-1.5.87-1.678.177-1.269-4.639,5.282-10.361-.922-7.983-2.018,2.06,2.955-2.808-6.213,6.36a3.543,3.543,0,0,1,.309,1.251.3.3,0,0,0,.5.164c2.582-2.627,2.056-1.657,2.745,1.448.487,2.541,3.46,2.428,5.475.546,1.122-1.007,3.352-3.118,3.392-3.158.857.8.676,2.671,3.411,2.671a13.365,13.365,0,0,0,3.447-1.3l-.068-.125c2.573-2.283,2.386-1.317,3.442-.118.491.56.852,1.934,1.595,2.4a5.494,5.494,0,0,0,3.586.118,24.232,24.232,0,0,0,3.9-2.273l-.071-.129c.788-.577.784-.645,1.444-1.14,1.143,1.01-.35,3.4,4.682,3.807,2.772.221,3.33-.467,6.194-2.538l-.049-.091c.84-.612.822-.672,1.5-1.178.69.61.361,1.8,1.531,2.951.941.925,1.825.75,3.152.856,2.772.221,3.33-.467,6.194-2.538-.035-.065-.166-.116.3-.4,1.136-.682,2.105,4.6,6.471,2.391a7.354,7.354,0,0,0,3.923-1.791c.122.315,3.348-2.67,4.052-3.089.572-.341,1.2-.346,1.014.339-.25.919.746-2.122-1.4,3.645-.838,2.251-.828,1.549-.608,2.841.1.606,1.215.531,1.77.406.806-.183,3.292-2.393,3.687-2.753,1.243-1.13,3.521-2.89,4.894-3.225,2.463.717,1.7,6.113,7.459,2.243a.471.471,0,0,0,.15-.62c-.2-.361-.448-.783-.588-1.02m-37.912-8.736c.647-1.166.913-1.451,1.152-1.963.337-.72-.266-1.605,2.646-3.867l.147.074a14.537,14.537,0,0,1-3.023,6.441c-.647.821-1.349,2.311-1.789,1.808a11.642,11.642,0,0,1,.867-2.494m-12.325,0c.647-1.166.913-1.451,1.152-1.963.337-.72-.266-1.605,2.646-3.867l.147.074a14.538,14.538,0,0,1-3.023,6.441c-.647.821-1.348,2.311-1.788,1.808a11.641,11.641,0,0,1,.866-2.494m25.128,2.39c.47,0,.643.8-1.143,2.125-.313.374-.364.575-.7.575-.985,0,1.1-2.7,1.844-2.7" data-name="Trazado 10274" id="Trazado_10274"/>
  </g>
</svg>